<?xml version="1.0" encoding="iso-8859-1"?>
<!-- Generator: Adobe Illustrator 16.0.0, SVG Export Plug-In . SVG Version: 6.00 Build 0)  -->
<!DOCTYPE svg PUBLIC "-//W3C//DTD SVG 1.1//EN" "http://www.w3.org/Graphics/SVG/1.1/DTD/svg11.dtd">
<svg version="1.1" id="Capa_1" xmlns="http://www.w3.org/2000/svg" xmlns:xlink="http://www.w3.org/1999/xlink" x="0px" y="0px"
	 width="612px" height="612px" viewBox="0 0 612 612" style="enable-background:new 0 0 612 612;" xml:space="preserve">
<g>
	<g id="Shape_6">
		<g>
			<path d="M216.439,267.516c-20.614,0-37.317,16.718-37.317,37.317c0,20.613,16.703,37.316,37.317,37.316
				s37.317-16.703,37.317-37.316C253.756,284.219,237.053,267.516,216.439,267.516z M335.854,267.516
				c-20.614,0-37.317,16.718-37.317,37.317c0,20.613,16.703,37.316,37.317,37.316s37.317-16.703,37.317-37.316
				C373.171,284.219,356.468,267.516,335.854,267.516z M328.391,13.76c-156.627,0-283.61,126.982-283.61,283.61
				c0,86.545,38.885,163.912,100.01,215.931C131.58,532.168,88.068,583.652,0,595.907c146.402,11.448,195.124-22.106,215.618-38.362
				c34.585,15.017,72.679,23.436,112.772,23.436C485.018,580.98,612,453.998,612,297.37S485.018,13.76,328.391,13.76z
				 M328.391,551.126c-140.148,0-253.756-113.608-253.756-253.756S188.242,43.614,328.391,43.614
				c140.147,0,253.756,113.608,253.756,253.756S468.538,551.126,328.391,551.126z M455.269,267.516
				c-20.614,0-37.317,16.718-37.317,37.317c0,20.613,16.703,37.316,37.317,37.316c20.613,0,37.316-16.703,37.316-37.316
				C492.585,284.219,475.882,267.516,455.269,267.516z"/>
		</g>
	</g>
</g>
<g>
</g>
<g>
</g>
<g>
</g>
<g>
</g>
<g>
</g>
<g>
</g>
<g>
</g>
<g>
</g>
<g>
</g>
<g>
</g>
<g>
</g>
<g>
</g>
<g>
</g>
<g>
</g>
<g>
</g>
</svg>
