<?xml version="1.0" encoding="iso-8859-1"?>
<!-- Generator: Adobe Illustrator 19.0.0, SVG Export Plug-In . SVG Version: 6.00 Build 0)  -->
<svg version="1.1" id="Layer_1" xmlns="http://www.w3.org/2000/svg" xmlns:xlink="http://www.w3.org/1999/xlink" x="0px" y="0px"
	 viewBox="0 0 500.152 500.152" style="enable-background:new 0 0 500.152 500.152;" xml:space="preserve">
<g>
	<g>
		<g>
			<path d="M461.944,110.436C453.52,83.74,434.32,61.252,409.28,48.732L315.96,2.076H184.184L90.864,48.74
				C65.824,61.26,46.632,83.748,38.2,110.444L0,231.412l95.44,28.632l18.632-62.128V453.74l2.776,2.392
				c1.976,1.712,49.536,41.944,133.224,41.944s131.248-40.232,133.224-41.944l2.776-2.392V197.916l18.64,62.12l95.44-28.632
				L461.944,110.436z M303.256,18.076c-5.136,12.2-18.752,32-53.184,32c-34.128,0-47.856-19.784-53.104-32H303.256z
				 M218.072,479.812c-48.16-6.752-78.968-26.976-88-33.648V162.076H108.12l-23.408,78.04l-64.56-19.368l5.808-18.384l53.92,15.408
				l4.4-15.384L30.784,187.1l22.688-71.84C60.6,92.668,76.84,73.636,98.032,63.052l51.24-25.632
				c6.384,17.144,24.528,52.272,68.8,64.4V479.812z M218.072,82.076V85.1c-35.856-11.808-49.92-42-54.416-54.872l17.576-8.792
				c4.824,12.432,16.736,32.864,43.736,41.032C220.712,67.9,218.072,74.652,218.072,82.076z M266.072,89.052v392.416
				c-5.184,0.352-10.48,0.608-16,0.608c-5.52,0-10.816-0.256-16-0.608V98.076v-9.024v-6.976c0-8.824,7.176-16,16-16
				c45.36,0,62.712-28.856,68.832-44.64l17.528,8.768c-4.944,13.896-21.296,48.448-64.024,57.504L266.072,89.052z M392.024,162.076
				h-21.952v284.096c-9.04,6.68-39.856,26.904-88,33.648v-378c44.272-12.128,62.408-47.264,68.8-64.4l51.256,25.632
				c21.184,10.592,37.432,29.624,44.56,52.208l22.688,71.84l-53.496,15.288l4.4,15.384l53.92-15.408l5.808,18.384l-64.56,19.368
				L392.024,162.076z"/>
			<rect x="242.072" y="106.076" width="16" height="16"/>
			<rect x="242.072" y="186.076" width="16" height="16"/>
			<rect x="242.072" y="266.076" width="16" height="16"/>
			<rect x="242.072" y="346.076" width="16" height="16"/>
			<rect x="242.072" y="426.076" width="16" height="16"/>
		</g>
	</g>
</g>
<g>
</g>
<g>
</g>
<g>
</g>
<g>
</g>
<g>
</g>
<g>
</g>
<g>
</g>
<g>
</g>
<g>
</g>
<g>
</g>
<g>
</g>
<g>
</g>
<g>
</g>
<g>
</g>
<g>
</g>
</svg>
