<?xml version="1.0" encoding="iso-8859-1"?>
<!-- Generator: Adobe Illustrator 19.0.0, SVG Export Plug-In . SVG Version: 6.00 Build 0)  -->
<svg version="1.1" id="Layer_1" xmlns="http://www.w3.org/2000/svg" xmlns:xlink="http://www.w3.org/1999/xlink" x="0px" y="0px"
	 viewBox="0 0 512 512" style="enable-background:new 0 0 512 512;" xml:space="preserve">
<g>
	<g>
		<g>
			<path d="M392.504,170.018c-1.442-18.807-9.105-113.502-17.937-131.166C363.311,16.341,313.451,0,255.996,0
				c-56.969,0-106.428,16.077-118.229,38.306c-0.051,0.085-0.102,0.162-0.154,0.247c-0.051,0.102-0.128,0.196-0.179,0.299
				c-8.832,17.664-16.495,112.358-17.946,131.166c-0.154,2.099,0.461,4.181,1.741,5.854l51.2,66.56
				c2.876,3.738,8.235,4.446,11.972,1.562c3.738-2.867,4.429-8.226,1.562-11.964l-49.203-63.966
				c2.611-33.033,7.441-81.263,12.058-106.419l80.674,105.668c1.681,2.202,4.215,3.354,6.793,3.354c1.801,0,3.627-0.572,5.163-1.749
				c3.755-2.859,4.471-8.218,1.613-11.964l-19.191-25.139c5.973-1.826,16.043-3.814,32.128-3.814c15.539,0,25.847,1.86,32.256,3.652
				L52.954,438.545c-1.809,2.381-2.253,5.538-1.161,8.32c1.101,2.79,3.584,4.796,6.537,5.291l46.14,7.68l15.437,46.336
				c0.99,2.987,3.558,5.188,6.673,5.717c0.478,0.077,0.956,0.111,1.417,0.111c2.628,0,5.137-1.203,6.767-3.328l256-332.8
				C392.051,174.199,392.666,172.117,392.504,170.018z M131.017,485.547l-11.989-35.977c-0.998-2.995-3.575-5.197-6.699-5.717
				l-37.18-6.204l233.54-304.606v-0.009l44.041-57.438c2.867-3.746,2.159-9.097-1.579-11.964c-3.755-2.876-9.097-2.15-11.972,1.579
				l-39.936,52.096c-7.535-2.91-21.137-6.374-43.247-6.374c-22.665,0-35.874,3.575-43.034,6.605l-57.25-74.982
				c11.503-11.733,48.41-25.489,100.284-25.489c57.813,0,97.135,17.084,103.305,29.414c5.521,11.059,12.57,79.027,15.94,121.583
				L131.017,485.547z"/>
			<path d="M459.038,438.545L340.467,283.878c-2.867-3.738-8.218-4.446-11.972-1.579c-3.738,2.867-4.446,8.218-1.579,11.964
				l109.935,143.386l-37.188,6.204c-3.115,0.521-5.7,2.722-6.69,5.717l-12.006,36.002l-96.606-125.184
				c-2.884-3.721-8.226-4.42-11.981-1.545c-3.721,2.884-4.412,8.243-1.536,11.972l106.394,137.865
				c1.638,2.116,4.147,3.319,6.758,3.319c0.478,0,0.956-0.034,1.425-0.12c3.115-0.529,5.675-2.722,6.673-5.709l15.437-46.336
				l46.131-7.68c2.961-0.495,5.444-2.5,6.545-5.291C461.299,444.083,460.856,440.926,459.038,438.545z"/>
		</g>
	</g>
</g>
<g>
</g>
<g>
</g>
<g>
</g>
<g>
</g>
<g>
</g>
<g>
</g>
<g>
</g>
<g>
</g>
<g>
</g>
<g>
</g>
<g>
</g>
<g>
</g>
<g>
</g>
<g>
</g>
<g>
</g>
</svg>
