<?xml version="1.0" encoding="iso-8859-1"?>
<!-- Generator: Adobe Illustrator 19.0.0, SVG Export Plug-In . SVG Version: 6.00 Build 0)  -->
<svg version="1.1" id="Layer_1" xmlns="http://www.w3.org/2000/svg" xmlns:xlink="http://www.w3.org/1999/xlink" x="0px" y="0px"
	 viewBox="0 0 512 512" style="enable-background:new 0 0 512 512;" xml:space="preserve">
<g>
	<g>
		<path d="M38.642,434.717C17.335,434.717,0,452.052,0,473.359C0,494.665,17.335,512,38.642,512
			c21.307,0,38.641-17.335,38.641-38.641C77.283,452.052,59.948,434.717,38.642,434.717z M38.642,492.679
			c-10.653,0-19.321-8.668-19.321-19.321c0-10.653,8.668-19.321,19.321-19.321c10.653,0,19.321,8.668,19.321,19.321
			C57.962,484.012,49.295,492.679,38.642,492.679z"/>
	</g>
</g>
<g>
	<g>
		<path d="M115.925,338.113c-26.634,0-48.302,21.669-48.302,48.302s21.668,48.302,48.302,48.302
			c26.634,0,48.302-21.669,48.302-48.302S142.559,338.113,115.925,338.113z M115.925,415.396c-15.981,0-28.981-13.001-28.981-28.981
			s13-28.981,28.981-28.981c15.981,0,28.981,13.001,28.981,28.981S131.906,415.396,115.925,415.396z"/>
	</g>
</g>
<g>
	<g>
		<path d="M381.585,19.321c-28.823,0-56.517,9.433-79.179,26.777C283.811,17.389,252.21,0,217.359,0
			c-55.932,0-101.434,45.504-101.434,101.434c0,6.351,0.587,12.658,1.75,18.845c-35.127,11.591-59.712,44.871-59.712,82.589
			c0,40.783,29.024,76.347,68.372,84.952c20.347,47.637,67.884,79.275,120.005,79.275c55.599,0,105.104-35.579,123.184-87.495
			c4.005,0.367,8.038,0.552,12.061,0.552c71.91,0,130.415-58.503,130.415-130.415S453.495,19.321,381.585,19.321z M381.585,260.83
			c-5.828,0-11.675-0.454-17.375-1.349c-4.842-0.76-9.495,2.232-10.807,6.962c-13.281,47.886-57.307,81.33-107.064,81.33
			c-45.976,0-87.764-28.893-103.986-71.895c-1.233-3.274-4.141-5.624-7.602-6.144c-32.762-4.926-57.469-33.672-57.469-66.867
			c0-31.948,22.672-59.803,53.908-66.232c2.642-0.544,4.936-2.168,6.328-4.479c1.392-2.311,1.752-5.099,0.998-7.689
			c-2.17-7.442-3.271-15.192-3.271-23.034c0-45.277,36.835-82.113,82.113-82.113c31.533,0,59.778,17.585,73.715,45.893
			c1.347,2.733,3.903,4.672,6.898,5.23c2.988,0.555,6.078-0.329,8.318-2.395c20.564-18.963,47.305-29.407,75.295-29.407
			c61.257,0,111.094,49.837,111.094,111.094S442.842,260.83,381.585,260.83z"/>
	</g>
</g>
<g>
</g>
<g>
</g>
<g>
</g>
<g>
</g>
<g>
</g>
<g>
</g>
<g>
</g>
<g>
</g>
<g>
</g>
<g>
</g>
<g>
</g>
<g>
</g>
<g>
</g>
<g>
</g>
<g>
</g>
</svg>
