<?xml version='1.0' encoding='iso-8859-1'?>
<svg version="1.1" xmlns="http://www.w3.org/2000/svg" viewBox="0 0 295.82 295.82" xmlns:xlink="http://www.w3.org/1999/xlink" enable-background="new 0 0 295.82 295.82">
  <g>
    <g>
      <path d="m147.91,0c-81.786,0-147.91,66.124-147.91,147.91s66.124,147.91 147.91,147.91 147.91-66.124 147.91-147.91-66.124-147.91-147.91-147.91zm0,278.419c-68.404,0-125.463-54.431-130.057-121.808h25.649c5.22,0 8.701-3.48 8.701-8.701 0-5.22-3.48-8.701-8.701-8.701h-25.648c1.966-28.799 13.468-55.197 31.427-76.026l16.862,16.862c1.74,1.74 3.48,1.74 6.96,1.74 3.48,0 5.22,0 6.96-1.74 3.48-3.48 3.48-8.701 0-12.181l-17.767-17.766c20.968-18.411 47.697-30.261 76.931-32.244v25.649c0,5.22 3.48,8.701 8.701,8.701s8.701-3.48 8.701-8.701v-25.649c28.799,1.966 55.197,13.468 76.026,31.427l-18.602,18.602c-3.48,3.48-3.48,8.701 0,12.181 1.74,1.74 3.48,1.74 6.96,1.74s5.22,0 6.96-1.74l17.767-17.767c18.411,20.968 30.261,47.697 32.244,76.931h-25.649c-5.22,0-8.701,3.48-8.701,8.701s3.48,8.701 8.701,8.701h25.649c-4.611,67.358-61.67,121.789-130.074,121.789z"/>
      <path d="m156.611,140.932v-27.825c0-5.22-3.48-8.701-8.701-8.701-5.22,0-8.701,3.48-8.701,8.701v27.825c-9.919,3.759-17.401,13.503-17.401,24.379 0,13.921 12.181,26.102 26.102,26.102 13.921,0 26.102-12.181 26.102-26.102 0-10.893-7.482-20.62-17.401-24.379zm-8.701,33.08c-5.22,0-8.701-3.48-8.701-8.701s3.48-8.701 8.701-8.701c5.22,0 8.701,3.48 8.701,8.701s-3.481,8.701-8.701,8.701z"/>
    </g>
  </g>
</svg>
